<svg xmlns="http://www.w3.org/2000/svg" xmlns:xlink="http://www.w3.org/1999/xlink" width="100" height="100" viewBox="0 0 100 100"><g><g transform="translate(50 50) scale(0.69 0.69) rotate(0) translate(-50 -50)" style="fill:#7400B3"><svg fill="#7400B3" xmlns="http://www.w3.org/2000/svg" viewBox="0 0 24 24" x="0px" y="0px"><title>Artboard 39</title><g data-name="Layer 40"><path d="M12,2A10,10,0,1,0,22,12,10,10,0,0,0,12,2Zm3,11H13v2a1,1,0,0,1-2,0V13H9a1,1,0,0,1,0-2h2V9a1,1,0,0,1,2,0v2h2a1,1,0,0,1,0,2Z"></path></g></svg></g></g></svg>