<svg height='100px' width='100px'  fill="#1A1A1A" xmlns="http://www.w3.org/2000/svg" xmlns:xlink="http://www.w3.org/1999/xlink" version="1.1" x="0px" y="0px" viewBox="0 0 96 96" enable-background="new 0 0 96 96" xml:space="preserve"><g><path d="M70.842,62.08c-0.883,0-1.527,0.186-1.642,0.223c-0.199,0.062-0.38,0.152-0.541,0.266l-12.036,8.416l-2.03-1.082   l2.856-4.045c0.465-0.664,0.475-1.551,0.029-2.229c-0.209-0.311-0.39-0.58-22.031-18.928c-0.665-0.57-1.633-0.627-2.363-0.139   L11.413,58.939c-0.901,0.598-1.157,1.812-0.56,2.719l11.665,17.982c0.295,0.455,0.77,0.77,1.301,0.863   c0.532,0.1,1.082-0.027,1.528-0.352l7.879-5.795l23.587,10.674c0.266,0.119,0.541,0.178,0.815,0.178   c0.438,0,0.865-0.143,1.216-0.424l16.364-12.818c0.104-0.082,0.189-0.166,0.275-0.262c0.987-1.135,2.334-4.057,0.322-6.967   C74.63,63.025,72.864,62.08,70.842,62.08z M72.58,69.016L57.354,80.941l-23.55-10.656c-0.257-0.117-0.541-0.174-0.816-0.174   c-0.408,0-0.815,0.129-1.167,0.379l-7.129,5.244L15.22,61.15l18.813-12.481c6.814,5.784,15.898,13.513,19.173,16.354l-2.126,3.008   l-11.438-6.098c-0.92-0.494-2.06-0.186-2.609,0.697s-0.313,2.041,0.531,2.648l0.076,0.053c0.066,0.053,0.142,0.094,0.218,0.137   l17.978,9.568c0.656,0.346,1.453,0.299,2.061-0.129l12.691-8.869c0.066-0.004,0.15-0.014,0.255-0.014   c0.723,0,1.272,0.303,1.719,0.953C73.178,67.879,72.816,68.664,72.58,69.016z"></path><path d="M70.549,34.255c-6.684,0-12.121,5.434-12.121,12.112c0,6.682,5.438,12.117,12.121,12.117   c6.672,0,12.111-5.436,12.111-12.117C82.66,39.689,77.221,34.255,70.549,34.255z M70.549,54.535c-4.51,0-8.173-3.664-8.173-8.168   s3.663-8.168,8.173-8.168c4.498,0,8.162,3.664,8.162,8.168S75.047,54.535,70.549,54.535z"></path><path d="M71.364,45.398c-1.243-0.465-1.755-0.773-1.755-1.258c0-0.412,0.303-0.82,1.261-0.82c1.054,0,1.729,0.336,2.107,0.498   l0.428-1.656c-0.484-0.232-1.148-0.441-2.126-0.484v-1.291h-1.443v1.396c-1.565,0.309-2.468,1.319-2.468,2.606   c0,1.423,1.063,2.154,2.629,2.686c1.092,0.365,1.558,0.717,1.558,1.271c0,0.588-0.57,0.912-1.405,0.912   c-0.949,0-1.822-0.309-2.431-0.646l-0.445,1.712c0.56,0.323,1.509,0.59,2.496,0.632v1.39h1.434v-1.494   c1.689-0.289,2.609-1.404,2.609-2.709C73.812,46.822,73.111,46.016,71.364,45.398z"></path><path d="M47.521,43.462c6.682,0,12.11-5.434,12.11-12.116c0-6.678-5.429-12.112-12.11-12.112c-6.684,0-12.112,5.434-12.112,12.112   C35.409,38.028,40.838,43.462,47.521,43.462z M47.521,23.178c4.498,0,8.162,3.664,8.162,8.168s-3.664,8.171-8.162,8.171   c-4.51,0-8.173-3.667-8.173-8.171S43.012,23.178,47.521,23.178z"></path><path d="M47.122,34.236c-0.949,0-1.812-0.309-2.431-0.646l-0.436,1.713c0.55,0.322,1.509,0.588,2.486,0.631v1.391h1.434v-1.495   c1.689-0.29,2.609-1.405,2.609-2.71c0-1.319-0.701-2.126-2.448-2.738c-1.243-0.47-1.757-0.778-1.757-1.262   c0-0.413,0.314-0.821,1.263-0.821c1.054,0,1.728,0.336,2.107,0.498l0.428-1.656c-0.484-0.233-1.139-0.441-2.126-0.484v-1.291   h-1.434v1.396c-1.566,0.309-2.478,1.319-2.478,2.605c0,1.424,1.073,2.155,2.639,2.686c1.082,0.365,1.558,0.717,1.558,1.272   C48.537,33.913,47.957,34.236,47.122,34.236z"></path><path d="M75.047,31.621c5.742,0,10.423-4.67,10.423-10.413c0-5.748-4.681-10.417-10.423-10.417s-10.412,4.67-10.412,10.417   C64.635,26.951,69.305,31.621,75.047,31.621z M75.047,14.735c3.57,0,6.475,2.904,6.475,6.473c0,3.564-2.904,6.469-6.475,6.469   c-3.568,0-6.463-2.904-6.463-6.469C68.584,17.64,71.479,14.735,75.047,14.735z"></path><path d="M74.715,23.61c-0.788,0-1.509-0.256-2.022-0.536l-0.359,1.428c0.455,0.266,1.253,0.489,2.069,0.522v1.163h1.196v-1.249   c1.404-0.242,2.173-1.167,2.173-2.254c0-1.101-0.589-1.771-2.041-2.283c-1.035-0.389-1.461-0.645-1.461-1.049   c0-0.341,0.256-0.683,1.053-0.683c0.874,0,1.434,0.28,1.756,0.413l0.352-1.376c-0.408-0.2-0.949-0.371-1.774-0.404v-1.077h-1.187   v1.162c-1.311,0.257-2.069,1.097-2.069,2.169c0,1.187,0.892,1.794,2.202,2.236c0.901,0.303,1.29,0.598,1.29,1.062   C75.892,23.344,75.418,23.61,74.715,23.61z"></path></g></svg>