<svg height='100px' width='100px'  fill="#FFFFFF" xmlns="http://www.w3.org/2000/svg" xmlns:xlink="http://www.w3.org/1999/xlink" viewBox="0 0 22 22" version="1.1" x="0px" y="0px"><title>cat_5</title><desc>Created with Sketch.</desc><g stroke="none" stroke-width="1" fill="none" fill-rule="evenodd"><g transform="translate(-9.000000, -34.000000)" fill-rule="nonzero" fill="#FFFFFF"><path d="M11,42 L17,42 L17,36 L11,36 L11,42 Z M9,34 L19,34 L19,44 L9,44 L9,34 Z M11,54 L17,54 L17,48 L11,48 L11,54 Z M9,46 L19,46 L19,56 L9,56 L9,46 Z M23,54 L29,54 L29,48 L23,48 L23,54 Z M21,46 L31,46 L31,56 L21,56 L21,46 Z M23,42 L29,42 L29,36 L23,36 L23,42 Z M21,34 L31,34 L31,44 L21,44 L21,34 Z"></path></g></g></svg>