<svg height='100px' width='100px'  fill="#FFFFFF" xmlns="http://www.w3.org/2000/svg" data-name="Layer 1" viewBox="0 0 100 100" x="0px" y="0px"><title>13</title><g data-name="Group"><path data-name="Compound Path" d="M96,58.9V40.6a3,3,0,0,0-2.7-3L86,36.8a32.2,32.2,0,0,0-8.4-9.9l.4-3.5c.4-3.9.5-5,.4-5.8a3.6,3.6,0,0,0-3.8-3.2h0c-4.5-.1-12.9,3.8-15.1,4.9h-.2L54,18.5h0a2,2,0,0,0-2.1,1.5L48.8,33.6a2,2,0,0,0,1,2.2l6,3.3L47.6,55l-2-11.2a2,2,0,0,0-2.3-1.6l-4.4.7-2-18.4a2,2,0,0,0-2.2-1.8l-.6.2h-.2A34.6,34.6,0,0,0,21.2,33.8h0A7.7,7.7,0,0,1,10.2,22.9a2,2,0,1,0-2.8-2.8,11.7,11.7,0,0,0,8.3,20l2.2-.2a25.1,25.1,0,0,0-2,8.3q0,.7,0,1.5A28.1,28.1,0,0,0,21.1,66a12.7,12.7,0,0,0,1.4,15.4,13.7,13.7,0,0,0,9.8,4.4h.4A13.9,13.9,0,0,0,42.2,82L44,80.2a41.7,41.7,0,0,0,14.5.4l1.2,1.2a14.2,14.2,0,0,0,18.7.7,12.6,12.6,0,0,0,3.8-14.2A32.2,32.2,0,0,0,86,62.6l7.4-.8A3,3,0,0,0,96,58.9ZM92,58l-7.3.8A2.3,2.3,0,0,0,82.8,60a28.2,28.2,0,0,1-4.4,6.4,2.3,2.3,0,0,0-.4,2.5,8.6,8.6,0,0,1-2.3,10.4,10.4,10.4,0,0,1-13.4-.6l-1.8-1.7a2.3,2.3,0,0,0-2-.6A37.6,37.6,0,0,1,44,76.2a2.3,2.3,0,0,0-2.1.6l-2.5,2.3a9.9,9.9,0,0,1-6.8,2.6h-.3a9.7,9.7,0,0,1-6.9-3.1A8.7,8.7,0,0,1,25,67.3a2.3,2.3,0,0,0,0-2.8,24.4,24.4,0,0,1-5.2-14.8q0-.6,0-1.2a21.9,21.9,0,0,1,2.3-8.2l1.4-2.6a29.5,29.5,0,0,1,9.8-9.8l1.9,17.5a2,2,0,0,0,2.3,1.8l4.6-.7,2.7,15.1a2,2,0,0,0,1.7,1.6h.3a2,2,0,0,0,1.8-1.1L60.2,39.3a2,2,0,0,0-.8-2.7L53,33.1l2.4-10.4,3.3.4h.8a2.3,2.3,0,0,0,1.3-.2c1.9-1,9.9-4.6,13.5-4.7,0,.9-.3,3.3-.4,4.6l-.5,4.5a2.3,2.3,0,0,0,.9,2,28.1,28.1,0,0,1,8.4,10,2.3,2.3,0,0,0,1.9,1.3l7.3.8Z"></path><path data-name="Compound Path" d="M69.2,38.4a4.9,4.9,0,1,0,4.9,4.9A4.9,4.9,0,0,0,69.2,38.4Zm0,5.8a.9.9,0,1,1,.9-.9A.9.9,0,0,1,69.2,44.1Z"></path></g></svg>