<svg height='100px' width='100px'  fill="#FF6868" xmlns="http://www.w3.org/2000/svg" xmlns:xlink="http://www.w3.org/1999/xlink" version="1.1" x="0px" y="0px" viewBox="0 0 64 64" style="enable-background:new 0 0 64 64;" xml:space="preserve"><path d="M32,16c-0.552,0-1-0.449-1-1h-2c0,1.302,0.839,2.402,2,2.816V20h2v-2.184c1.161-0.414,2-1.514,2-2.816c0-1.654-1.346-3-3-3  c-0.552,0-1-0.449-1-1s0.448-1,1-1s1,0.449,1,1h2c0-1.302-0.839-2.402-2-2.816V6h-2v2.184C29.839,8.598,29,9.698,29,11  c0,1.654,1.346,3,3,3c0.552,0,1,0.449,1,1S32.552,16,32,16z"></path><path d="M59,15c0-0.552-0.447-1-1-1H46.945c-1.269-0.732-2.603-1.371-3.991-1.917C42.485,6.446,37.756,2,32,2  S21.515,6.446,21.046,12.083c-1.388,0.545-2.722,1.184-3.991,1.917H6c-0.553,0-1,0.448-1,1v11.984C3.072,30.97,2,35.401,2,40  c0,6.361,1.972,12.442,5.702,17.587C7.783,57.699,7.885,57.791,8,57.859V58c0,2.206,1.794,4,4,4h8c2.206,0,4-1.794,4-4h16  c0,2.206,1.794,4,4,4h8c2.206,0,4-1.794,4-4v-0.141c0.115-0.069,0.217-0.161,0.298-0.272C60.028,52.442,62,46.361,62,40  c0-4.599-1.072-9.03-3-13.016V15z M49.994,16H57v7.421c-0.118-0.177-0.253-0.341-0.374-0.515c-0.068-0.098-0.142-0.193-0.211-0.29  c-1.485-2.084-3.225-3.965-5.188-5.606c-0.346-0.291-0.69-0.583-1.049-0.859C50.115,16.102,50.057,16.047,49.994,16z M32,4  c4.89,0,8.873,3.922,8.989,8.784c0,0.003-0.001,0.005-0.001,0.008L41,13c0,4.962-4.037,9-9,9c-0.31,0-0.617-0.016-0.919-0.047  c-4.533-0.462-8.081-4.305-8.077-9.013l0.008-0.148c0-0.003-0.001-0.005-0.001-0.008C23.127,7.922,27.11,4,32,4z M7,23.421V16h7.006  c-0.063,0.047-0.12,0.102-0.183,0.15c-0.36,0.275-0.703,0.568-1.049,0.859c-1.963,1.641-3.703,3.522-5.188,5.606  c-0.069,0.098-0.143,0.192-0.211,0.29C7.253,23.08,7.118,23.244,7,23.421z M54.973,56C54.433,56.015,54,56.457,54,57v1  c0,1.103-0.897,2-2,2h-8c-1.103,0-2-0.897-2-2v-1c0-0.552-0.447-1-1-1H23c-0.553,0-1,0.448-1,1v1c0,1.103-0.897,2-2,2h-8  c-1.103,0-2-0.897-2-2v-1c0-0.543-0.433-0.985-0.973-1C5.736,51.288,4,45.767,4,40c0-4.91,1.3-9.621,3.62-13.733  c0.004-0.006,0.007-0.013,0.01-0.019c0.331-0.586,0.682-1.159,1.054-1.719c0,0,0,0,0,0c0.366-0.551,0.752-1.089,1.156-1.613  c0.012-0.015,0.023-0.031,0.034-0.046c0.381-0.492,0.781-0.97,1.193-1.437c0.045-0.051,0.089-0.104,0.135-0.154  c0.37-0.412,0.758-0.81,1.152-1.2c0.104-0.102,0.205-0.208,0.31-0.308c0.334-0.321,0.683-0.628,1.034-0.932  c0.183-0.158,0.362-0.32,0.549-0.473c0.28-0.23,0.57-0.448,0.859-0.668c0.273-0.207,0.543-0.416,0.824-0.613  c0.221-0.156,0.45-0.301,0.676-0.45c0.355-0.234,0.71-0.468,1.077-0.687c1.081-0.646,2.206-1.231,3.384-1.731  c0.034,0.308,0.085,0.61,0.144,0.91c0.006,0.031,0.008,0.063,0.015,0.094c0.072,0.349,0.161,0.691,0.265,1.027  c0.026,0.085,0.061,0.167,0.09,0.251c0.083,0.246,0.168,0.491,0.267,0.729c0.047,0.113,0.103,0.221,0.154,0.332  c0.093,0.203,0.186,0.406,0.29,0.602c0.064,0.119,0.135,0.233,0.202,0.349c0.105,0.18,0.21,0.36,0.325,0.534  c0.078,0.117,0.161,0.23,0.243,0.344c0.118,0.164,0.236,0.327,0.362,0.484c0.09,0.112,0.185,0.22,0.279,0.328  c0.13,0.149,0.261,0.296,0.398,0.438c0.102,0.105,0.207,0.207,0.313,0.308c0.141,0.135,0.285,0.266,0.433,0.394  c0.112,0.096,0.226,0.19,0.341,0.281c0.152,0.121,0.308,0.237,0.467,0.349c0.121,0.086,0.243,0.171,0.368,0.252  c0.163,0.106,0.33,0.206,0.499,0.303c0.129,0.075,0.258,0.149,0.39,0.218c0.174,0.091,0.353,0.175,0.533,0.257  c0.135,0.062,0.268,0.125,0.406,0.181c0.187,0.076,0.378,0.143,0.57,0.209c0.138,0.048,0.273,0.099,0.413,0.141  c0.203,0.061,0.411,0.11,0.619,0.159c0.135,0.032,0.268,0.07,0.404,0.097c0.232,0.046,0.469,0.077,0.706,0.108  c0.118,0.016,0.233,0.038,0.352,0.05C31.271,23.98,31.633,24,32,24s0.729-0.02,1.087-0.055c0.119-0.012,0.234-0.035,0.352-0.05  c0.237-0.031,0.474-0.062,0.706-0.108c0.137-0.027,0.269-0.065,0.404-0.097c0.208-0.05,0.416-0.098,0.619-0.159  c0.14-0.042,0.276-0.093,0.413-0.141c0.192-0.066,0.383-0.133,0.57-0.209c0.138-0.056,0.271-0.119,0.406-0.181  c0.18-0.082,0.358-0.166,0.533-0.257c0.132-0.069,0.261-0.144,0.39-0.218c0.169-0.098,0.336-0.197,0.499-0.303  c0.125-0.081,0.247-0.166,0.368-0.252c0.159-0.113,0.314-0.229,0.467-0.349c0.116-0.092,0.229-0.185,0.341-0.281  c0.148-0.127,0.292-0.259,0.433-0.394c0.106-0.101,0.211-0.203,0.313-0.308c0.137-0.142,0.269-0.289,0.398-0.438  c0.094-0.109,0.189-0.216,0.279-0.328c0.126-0.157,0.245-0.32,0.362-0.484c0.082-0.114,0.165-0.227,0.243-0.344  c0.115-0.174,0.22-0.353,0.325-0.534c0.068-0.116,0.139-0.23,0.202-0.349c0.105-0.196,0.198-0.399,0.29-0.602  c0.051-0.111,0.107-0.219,0.154-0.332c0.099-0.238,0.185-0.483,0.267-0.729c0.028-0.084,0.063-0.166,0.09-0.251  c0.104-0.336,0.193-0.678,0.265-1.027c0.006-0.031,0.009-0.063,0.015-0.094c0.059-0.3,0.11-0.602,0.144-0.91  c1.177,0.5,2.303,1.085,3.384,1.731c0.367,0.219,0.722,0.453,1.077,0.687c0.226,0.149,0.455,0.295,0.676,0.45  c0.281,0.197,0.551,0.407,0.824,0.613c0.289,0.22,0.579,0.437,0.858,0.667c0.187,0.154,0.367,0.316,0.55,0.474  c0.35,0.304,0.699,0.611,1.033,0.931c0.105,0.101,0.206,0.206,0.31,0.308c0.394,0.391,0.782,0.788,1.152,1.2  c0.046,0.051,0.089,0.103,0.135,0.154c0.413,0.467,0.813,0.944,1.193,1.437c0.012,0.015,0.023,0.031,0.034,0.046  c0.404,0.524,0.79,1.062,1.156,1.613c0,0,0,0,0,0c0.372,0.56,0.723,1.134,1.054,1.719c0.004,0.006,0.007,0.013,0.01,0.019  C58.7,30.379,60,35.09,60,40C60,45.767,58.264,51.288,54.973,56z"></path><path d="M25,41c-1.654,0-3,1.346-3,3s1.346,3,3,3s3-1.346,3-3S26.654,41,25,41z M25,45c-0.552,0-1-0.449-1-1s0.448-1,1-1  s1,0.449,1,1S25.552,45,25,45z"></path><path d="M39,41c-1.654,0-3,1.346-3,3s1.346,3,3,3s3-1.346,3-3S40.654,41,39,41z M39,45c-0.552,0-1-0.449-1-1s0.448-1,1-1  s1,0.449,1,1S39.552,45,39,45z"></path><path d="M21,31c0-1.654-1.346-3-3-3s-3,1.346-3,3s1.346,3,3,3S21,32.654,21,31z M17,31c0-0.551,0.448-1,1-1s1,0.449,1,1  s-0.448,1-1,1S17,31.551,17,31z"></path><path d="M46,28c-1.654,0-3,1.346-3,3s1.346,3,3,3s3-1.346,3-3S47.654,28,46,28z M46,32c-0.552,0-1-0.449-1-1s0.448-1,1-1  s1,0.449,1,1S46.552,32,46,32z"></path><path d="M32,36c-8.411,0-15,3.514-15,8s6.589,8,15,8s15-3.514,15-8S40.411,36,32,36z M32,50c-7.776,0-13-3.103-13-6s5.224-6,13-6  s13,3.103,13,6S39.776,50,32,50z"></path><rect x="42.697" y="3" transform="matrix(0.8321 -0.5547 0.5547 0.8321 5.255 25.356)" width="3.606" height="2"></rect><rect x="44" y="8" width="4" height="2"></rect><rect x="18.5" y="2.197" transform="matrix(0.5547 -0.8321 0.8321 0.5547 5.3551 18.0062)" width="2" height="3.606"></rect><rect x="16" y="8" width="4" height="2"></rect></svg>