<svg height='100px' width='100px'  fill="#FFFFFF" xmlns="http://www.w3.org/2000/svg" data-name="Layer 1" viewBox="0 0 100 100" x="0px" y="0px"><title>Artboard 7</title><path d="M64.79,91.66a.85.85,0,0,1-.21.31.88.88,0,0,1-.32.2.84.84,0,0,1-.18,0H58.85a.94.94,0,0,1-.42-.07.89.89,0,0,1-.5-.57l-.89-3-.89-3-.06-.19,0-.09a3.48,3.48,0,0,0-.19-.5,3.29,3.29,0,0,0-2.65-1.85H50.81l-6.22,0h-6l-.26,0a3.21,3.21,0,0,0-2.76,2.26l0,.12-.05.18-.21.74-.42,1.47-.83,2.92c-.36,1.28-.32,1.19-.56,1.45a1.11,1.11,0,0,1-.36.22,1.09,1.09,0,0,1-.21,0h-.45l-3,0h-2a1.22,1.22,0,0,1-.22,0,1.1,1.1,0,0,1-.69-.53,1.2,1.2,0,0,1-.1-.23L26.3,91l-.43-1.37a85.89,85.89,0,0,0-9.56-20c-.46-.73-.93-1.44-1.4-2.15l-1.35-2A23.19,23.19,0,0,1,10,53.49,23.89,23.89,0,0,1,13.6,40.26a1.41,1.41,0,0,0-.4-1.91,1.35,1.35,0,0,0-1.81.4A25.79,25.79,0,0,0,6.34,53.47,26.53,26.53,0,0,0,10,67.61l1.33,2.14,1.28,2.11A85.24,85.24,0,0,1,21.16,91l.4,1.37.2.69a6.31,6.31,0,0,0,.45,1.11,6.11,6.11,0,0,0,3.69,3,6.24,6.24,0,0,0,1.22.23l.57,0h1.84l3,0h.4a6,6,0,0,0,.63,0,6.19,6.19,0,0,0,5-3.62,15.86,15.86,0,0,0,.59-1.76l.87-2.9.28-.95H41.5l3.09,0,6.22,0h.48l.51,1.77.87,3a6.38,6.38,0,0,0,3.51,4,6.47,6.47,0,0,0,2.65.55H64a6.64,6.64,0,0,0,.69,0,6.36,6.36,0,0,0,5.23-4.07c.19-.52.21-.63.3-.92l.23-.76,3.71-12.09.08-.25c0-.06,0-.13.07-.19a3.18,3.18,0,0,1,.19-.36,3,3,0,0,1,1.19-1.1l1.43-.73c1.91-1,3.79-2.07,5.6-3.23A62.79,62.79,0,0,0,88,70.25q1.27-1,2.47-2.09.6-.54,1.18-1.11l.15-.14.2-.21c.13-.15.27-.29.39-.45a7,7,0,0,0,.66-1A7.2,7.2,0,0,0,93.84,63,7,7,0,0,0,94,61.85V61l0-3-.05-6a7.82,7.82,0,0,0-4.42-6.84,7.63,7.63,0,0,0-2-.65,9.69,9.69,0,0,0-1.87-.12l-1.84,0a31.8,31.8,0,0,1-2.94-3.16q-.81-1-1.53-2.07a7.36,7.36,0,0,1-1-1.83A4.73,4.73,0,0,1,78,35.67a4.66,4.66,0,0,1,.13-.9,10.73,10.73,0,0,1,.3-1,13.18,13.18,0,0,1,.89-2c.18-.34.35-.62.58-1a5.45,5.45,0,0,0-3.1-8.12A6,6,0,0,0,75,22.37a5.55,5.55,0,0,0-.81.07l-.62.11a22.53,22.53,0,0,0-2.44.5,21.36,21.36,0,0,0-7.87,3.85c-4.41.12-8.27.24-11.62.38a1.37,1.37,0,1,0,0,2.74c3.52.14,7.58.27,12.26.39a1.63,1.63,0,0,0,1-.33L65,30A18,18,0,0,1,72,26.87a19.14,19.14,0,0,1,2.09-.33l.54-.07a1.78,1.78,0,0,1,.36,0,1.89,1.89,0,0,1,.56.1A1.27,1.27,0,0,1,76.4,28a1.18,1.18,0,0,1-.18.39c-.22.33-.51.77-.74,1.17a17.47,17.47,0,0,0-1.27,2.66,15.14,15.14,0,0,0-.47,1.46,9.15,9.15,0,0,0,.12,5.2,11.86,11.86,0,0,0,1.49,3q.79,1.23,1.7,2.42a36.09,36.09,0,0,0,4.06,4.48,2.38,2.38,0,0,0,1.6.64h.05l2.82,0a4.55,4.55,0,0,1,1,.07,2.66,2.66,0,0,1,.71.25,2.77,2.77,0,0,1,1.52,2.45l0,5.86,0,3v.7a1.77,1.77,0,0,1,0,.33,2,2,0,0,1-.23.61,1.76,1.76,0,0,1-.18.27l-.11.12-.19.18q-.51.49-1,1c-.71.63-1.45,1.25-2.22,1.84a58.63,58.63,0,0,1-4.84,3.37c-1.68,1.05-3.43,2-5.22,3l-1.37.69a8.47,8.47,0,0,0-3.39,3.08,8.63,8.63,0,0,0-.55,1c-.08.18-.15.36-.22.54l-.16.5L65.21,90.31Zm-11.9-3.34h0Z"></path><path d="M23.7,31.69a11.08,11.08,0,0,0-1.65,8.24,10.81,10.81,0,0,0,1.23,3.24,9.49,9.49,0,0,0,1.8,2.19c.18.16.78-.15,1.34-.68s.83-.95.76-1.09a9.86,9.86,0,0,1-.82-1.87,9.15,9.15,0,0,1-.37-2.3,7.56,7.56,0,0,1,1.65-4.94,7,7,0,0,1,5-2.61,6.76,6.76,0,0,1,7.11,7.85,7,7,0,0,1-3.09,4.77,7.59,7.59,0,0,1-5.09,1.16,9.17,9.17,0,0,1-2.26-.6,9.89,9.89,0,0,1-1.78-1c-.14-.09-.72.25-1.27.76s-.77.94-.64,1.11a9.44,9.44,0,0,0,2,2,10.76,10.76,0,0,0,3.1,1.54,11.05,11.05,0,0,0,8.35-.82,11.58,11.58,0,0,0,3.77-3.17A11.74,11.74,0,0,0,45,40.71,11.82,11.82,0,0,0,27.24,28.26,11.58,11.58,0,0,0,23.7,31.69Z"></path><path d="M38.51,2.35a9.91,9.91,0,0,0-4.2,1.44,9.73,9.73,0,0,0-3,2.92A9.24,9.24,0,0,0,30,13.65a8,8,0,0,0,2.61,4.49c.15.13.74-.2,1.3-.73s.85-.92.8-1a7,7,0,0,1-.78-3.22,5.72,5.72,0,0,1,1.32-3.64A5.15,5.15,0,0,1,39,7.66a4.94,4.94,0,0,1,5.15,5.68,5.16,5.16,0,0,1-2.2,3.52,5.74,5.74,0,0,1-3.77,1A7,7,0,0,1,35,16.73c-.11-.07-.67.3-1.23.81h0c-.49.46-.79.91-.69,1.06a8,8,0,0,0,4.19,3,9.22,9.22,0,0,0,7-.63,9.73,9.73,0,0,0,3.19-2.66,9.89,9.89,0,0,0,1.85-4,10,10,0,0,0-10.83-12Z"></path><path d="M14.27,9a9.39,9.39,0,0,0-4,1.37,9.21,9.21,0,0,0-2.81,2.77,8.73,8.73,0,0,0-1.24,6.58,7.53,7.53,0,0,0,2.49,4.22c.15.12.73-.22,1.29-.75s.86-.92.81-1a6.45,6.45,0,0,1-.67-3,5.2,5.2,0,0,1,1.23-3.28,4.64,4.64,0,0,1,3.33-1.63,4.43,4.43,0,0,1,4.6,5.08,4.65,4.65,0,0,1-2,3.17,5.23,5.23,0,0,1-3.4.91,6.5,6.5,0,0,1-2.9-1c-.11-.06-.66.31-1.21.82s-.8.91-.7,1a7.5,7.5,0,0,0,3.94,2.89,8.71,8.71,0,0,0,6.65-.57,9.21,9.21,0,0,0,3-2.51,9.38,9.38,0,0,0,1.76-3.82A9.48,9.48,0,0,0,14.27,9Z"></path><circle cx="68.75" cy="47.85" r="3.16" transform="translate(0.62 96.57) rotate(-70.41)"></circle></svg>