<svg xmlns="http://www.w3.org/2000/svg" xmlns:xlink="http://www.w3.org/1999/xlink" width="100" height="100" viewBox="0 0 100 100"><g transform="translate(50 50) scale(0.69 0.69) rotate(90) translate(-50 -50)" style="fill:#1A1A1A"><svg fill="#1A1A1A" xmlns="http://www.w3.org/2000/svg" xmlns:xlink="http://www.w3.org/1999/xlink" version="1.1" preserveAspectRatio="none" x="0px" y="0px" viewBox="0 0 100 100"><defs><g id="a"><path fill="#1A1A1A" stroke="none" d=" M 58.15 23.65 L 58.15 20 54.25 20 Q 50.95 20 49.35 22.2 47.75 24.4 47.75 27.7 L 47.05 41.45 Q 46.8 43.25 46.1 44.6 45.45 46.05 44.35 47.05 43.9 47.55 43.2 47.75 42.8 47.95 41.85 48.15 L 41.85 51.6 Q 42.95 51.8 43.2 51.9 43.9 52.1 44.35 52.45 45.45 53.25 46.05 54.55 47.65 58.15 47.65 61.65 L 47.65 72.1 Q 47.65 75.7 49.45 77.85 51.25 80 54.1 80 L 58.15 80 58.15 76.25 55.25 76.25 Q 54.1 76.25 53.35 75.65 52.55 74.95 52.2 74 L 51.65 71.75 51.5 69.45 51.35 59.8 Q 51.35 57.55 50.8 55.8 50.15 53.65 49.65 52.8 48.8 51.5 47.9 50.8 47.05 50.1 46.1 49.75 47 49.3 47.8 48.7 48.95 47.85 49.6 46.75 50.1 45.8 50.75 43.7 51.35 41.85 51.35 39.45 L 51.55 28.05 52 25.9 Q 52.35 24.85 53.15 24.2 53.9 23.65 55.25 23.65 L 58.15 23.65 Z"></path></g></defs><g transform="matrix( 1, 0, 0, 1, 0,0) "><use xlink:href="#a"></use></g></svg></g></svg>